<?xml version="1.0"?>
<svg version="1.1" xmlns="http://www.w3.org/2000/svg" xmlns:xlink="http://www.w3.org/1999/xlink" width="640" height="480">
    <desc iVinci="yes" version="4.6" gridStep="20" showGrid="no" snapToGrid="no" codePlatform="0"/>
    <g id="Layer1" name="Layer 1" opacity="1"/>
    <g id="Layer2" name="Layer 2" opacity="1">
        <g id="Shape1">
            <desc shapeID="1" type="0" basicInfo-basicType="0" basicInfo-roundedRectRadius="12" basicInfo-polygonSides="6" basicInfo-starPoints="5" bounding="rect(-26.4667,-32.6566,52.9334,65.3133)" text="" font-familyName="Apple SD 산돌고딕 Neo" font-pixelSize="17" font-bold="1" font-underline="0" font-alignment="1" strokeStyle="0" markerStart="0" markerEnd="0" shadowEnabled="0" shadowOffsetX="0" shadowOffsetY="2" shadowBlur="4" shadowOpacity="160" blurEnabled="0" blurRadius="4" transform="matrix(1.3599,0,0,1.3595,155.548,230.082)" pers-center="0,0" pers-size="0,0" pers-start="0,0" pers-end="0,0" locked="0" mesh="" flag=""/>
            <path id="shapePath1" d="M119.556,185.685 L172.439,185.685 C180.468,193.429 184.961,197.737 191.54,205.341 L191.54,274.479 L119.556,274.479 L119.556,185.685 Z" style="stroke:#3888a1;stroke-opacity:1;stroke-width:2;stroke-linejoin:miter;stroke-miterlimit:2;stroke-linecap:round;fill-rule:evenodd;fill:#ffffff;fill-opacity:0.690196;"/>
        </g>
        <g id="Shape2">
            <desc shapeID="2" type="0" basicInfo-basicType="0" basicInfo-roundedRectRadius="12" basicInfo-polygonSides="6" basicInfo-starPoints="5" bounding="rect(-7.34271,-7.1741,14.6854,14.3482)" text="" font-familyName="Apple SD 산돌고딕 Neo" font-pixelSize="17" font-bold="1" font-underline="0" font-alignment="1" strokeStyle="0" markerStart="0" markerEnd="0" shadowEnabled="0" shadowOffsetX="0" shadowOffsetY="2" shadowBlur="4" shadowOpacity="160" blurEnabled="0" blurRadius="4" transform="matrix(1.2274,0,0,1.39743,181.765,196.535)" pers-center="0,0" pers-size="0,0" pers-start="0,0" pers-end="0,0" locked="0" mesh="" flag=""/>
            <path id="shapePath2" d="M190.777,206.56 L172.753,206.56 L172.753,186.509 " style="stroke:#3888a1;stroke-opacity:1;stroke-width:2;stroke-linejoin:miter;stroke-miterlimit:2;stroke-linecap:round;fill-rule:evenodd;fill:#e6f8f5;fill-opacity:1;"/>
        </g>
        <g id="Shape3">
            <desc shapeID="3" type="0" basicInfo-basicType="0" basicInfo-roundedRectRadius="12" basicInfo-polygonSides="6" basicInfo-starPoints="5" bounding="rect(-26.4667,-32.6566,52.9334,65.3133)" text="" font-familyName="Apple SD 산돌고딕 Neo" font-pixelSize="17" font-bold="1" font-underline="0" font-alignment="1" strokeStyle="0" markerStart="0" markerEnd="0" shadowEnabled="0" shadowOffsetX="0" shadowOffsetY="2" shadowBlur="4" shadowOpacity="160" blurEnabled="0" blurRadius="4" transform="matrix(1.3599,0,0,1.3595,278.496,70.0344)" pers-center="0,0" pers-size="0,0" pers-start="0,0" pers-end="0,0" locked="0" mesh="" flag=""/>
            <path id="shapePath3" d="M242.504,25.6377 L295.387,25.6377 C303.415,33.3814 307.909,37.6889 314.488,45.2928 L314.488,114.431 L242.504,114.431 L242.504,25.6377 Z" style="stroke:#3888a1;stroke-opacity:1;stroke-width:2;stroke-linejoin:miter;stroke-miterlimit:2;stroke-linecap:round;fill-rule:evenodd;fill:#ffffff;fill-opacity:0.690196;"/>
        </g>
        <g id="Shape4">
            <desc shapeID="4" type="0" basicInfo-basicType="0" basicInfo-roundedRectRadius="12" basicInfo-polygonSides="6" basicInfo-starPoints="5" bounding="rect(-7.34271,-7.1741,14.6854,14.3482)" text="" font-familyName="Apple SD 산돌고딕 Neo" font-pixelSize="17" font-bold="1" font-underline="0" font-alignment="1" strokeStyle="0" markerStart="0" markerEnd="0" shadowEnabled="0" shadowOffsetX="0" shadowOffsetY="2" shadowBlur="4" shadowOpacity="160" blurEnabled="0" blurRadius="4" transform="matrix(1.2274,0,0,1.39743,304.713,36.487)" pers-center="0,0" pers-size="0,0" pers-start="0,0" pers-end="0,0" locked="0" mesh="" flag=""/>
            <path id="shapePath4" d="M313.725,46.5123 L295.7,46.5123 L295.7,26.4617 " style="stroke:#3888a1;stroke-opacity:1;stroke-width:2;stroke-linejoin:miter;stroke-miterlimit:2;stroke-linecap:round;fill-rule:evenodd;fill:#e6f8f5;fill-opacity:1;"/>
        </g>
        <g id="Shape5">
            <desc shapeID="5" type="0" basicInfo-basicType="0" basicInfo-roundedRectRadius="12" basicInfo-polygonSides="6" basicInfo-starPoints="5" bounding="rect(-26.4667,-32.6566,52.9334,65.3133)" text="" font-familyName="Apple SD 산돌고딕 Neo" font-pixelSize="17" font-bold="1" font-underline="0" font-alignment="1" strokeStyle="0" markerStart="0" markerEnd="0" shadowEnabled="0" shadowOffsetX="0" shadowOffsetY="2" shadowBlur="4" shadowOpacity="160" blurEnabled="0" blurRadius="4" transform="matrix(1.3599,0,0,1.3595,411.071,97.3916)" pers-center="0,0" pers-size="0,0" pers-start="0,0" pers-end="0,0" locked="0" mesh="" flag=""/>
            <path id="shapePath5" d="M375.078,52.9949 L427.961,52.9949 C435.99,60.7386 440.484,65.0461 447.063,72.65 L447.063,141.788 L375.078,141.788 L375.078,52.9949 Z" style="stroke:#3888a1;stroke-opacity:1;stroke-width:2;stroke-linejoin:miter;stroke-miterlimit:2;stroke-linecap:round;fill-rule:evenodd;fill:#ffffff;fill-opacity:0.690196;"/>
        </g>
        <g id="Shape6">
            <desc shapeID="6" type="0" basicInfo-basicType="0" basicInfo-roundedRectRadius="12" basicInfo-polygonSides="6" basicInfo-starPoints="5" bounding="rect(-7.34271,-7.1741,14.6854,14.3482)" text="" font-familyName="Apple SD 산돌고딕 Neo" font-pixelSize="17" font-bold="1" font-underline="0" font-alignment="1" strokeStyle="0" markerStart="0" markerEnd="0" shadowEnabled="0" shadowOffsetX="0" shadowOffsetY="2" shadowBlur="4" shadowOpacity="160" blurEnabled="0" blurRadius="4" transform="matrix(1.2274,0,0,1.39743,437.287,63.8442)" pers-center="0,0" pers-size="0,0" pers-start="0,0" pers-end="0,0" locked="0" mesh="" flag=""/>
            <path id="shapePath6" d="M446.3,73.8695 L428.275,73.8695 L428.275,53.8189 " style="stroke:#3888a1;stroke-opacity:1;stroke-width:2;stroke-linejoin:miter;stroke-miterlimit:2;stroke-linecap:round;fill-rule:evenodd;fill:#e6f8f5;fill-opacity:1;"/>
        </g>
        <g id="Shape7">
            <desc shapeID="7" type="0" basicInfo-basicType="0" basicInfo-roundedRectRadius="12" basicInfo-polygonSides="6" basicInfo-starPoints="5" bounding="rect(-26.4667,-32.6566,52.9334,65.3133)" text="" font-familyName="Apple SD 산돌고딕 Neo" font-pixelSize="17" font-bold="1" font-underline="0" font-alignment="1" strokeStyle="0" markerStart="0" markerEnd="0" shadowEnabled="0" shadowOffsetX="0" shadowOffsetY="2" shadowBlur="4" shadowOpacity="160" blurEnabled="0" blurRadius="4" transform="matrix(1.3599,0,0,1.3595,382.839,369.051)" pers-center="0,0" pers-size="0,0" pers-start="0,0" pers-end="0,0" locked="0" mesh="" flag=""/>
            <path id="shapePath7" d="M346.847,324.654 L399.729,324.654 C407.758,332.398 412.252,336.705 418.831,344.309 L418.831,413.448 L346.847,413.448 L346.847,324.654 Z" style="stroke:#3888a1;stroke-opacity:1;stroke-width:2;stroke-linejoin:miter;stroke-miterlimit:2;stroke-linecap:round;fill-rule:evenodd;fill:#ffffff;fill-opacity:0.690196;"/>
        </g>
        <g id="Shape8">
            <desc shapeID="8" type="0" basicInfo-basicType="0" basicInfo-roundedRectRadius="12" basicInfo-polygonSides="6" basicInfo-starPoints="5" bounding="rect(-7.34271,-7.1741,14.6854,14.3482)" text="" font-familyName="Apple SD 산돌고딕 Neo" font-pixelSize="17" font-bold="1" font-underline="0" font-alignment="1" strokeStyle="0" markerStart="0" markerEnd="0" shadowEnabled="0" shadowOffsetX="0" shadowOffsetY="2" shadowBlur="4" shadowOpacity="160" blurEnabled="0" blurRadius="4" transform="matrix(1.2274,0,0,1.39743,409.055,335.503)" pers-center="0,0" pers-size="0,0" pers-start="0,0" pers-end="0,0" locked="0" mesh="" flag=""/>
            <path id="shapePath8" d="M418.068,345.529 L400.043,345.529 L400.043,325.478 " style="stroke:#3888a1;stroke-opacity:1;stroke-width:2;stroke-linejoin:miter;stroke-miterlimit:2;stroke-linecap:round;fill-rule:evenodd;fill:#e6f8f5;fill-opacity:1;"/>
        </g>
        <g id="Shape9">
            <desc shapeID="9" type="0" basicInfo-basicType="0" basicInfo-roundedRectRadius="12" basicInfo-polygonSides="6" basicInfo-starPoints="5" bounding="rect(-26.4667,-32.6566,52.9334,65.3133)" text="" font-familyName="Apple SD 산돌고딕 Neo" font-pixelSize="17" font-bold="1" font-underline="0" font-alignment="1" strokeStyle="0" markerStart="0" markerEnd="0" shadowEnabled="0" shadowOffsetX="0" shadowOffsetY="2" shadowBlur="4" shadowOpacity="160" blurEnabled="0" blurRadius="4" transform="matrix(1.3599,0,0,1.3595,260.441,386.831)" pers-center="0,0" pers-size="0,0" pers-start="0,0" pers-end="0,0" locked="0" mesh="" flag=""/>
            <path id="shapePath9" d="M224.448,342.434 L277.331,342.434 C285.36,350.178 289.854,354.485 296.432,362.089 L296.432,431.228 L224.448,431.228 L224.448,342.434 Z" style="stroke:#3888a1;stroke-opacity:1;stroke-width:2;stroke-linejoin:miter;stroke-miterlimit:2;stroke-linecap:round;fill-rule:evenodd;fill:#ffffff;fill-opacity:0.690196;"/>
        </g>
        <g id="Shape10">
            <desc shapeID="10" type="0" basicInfo-basicType="0" basicInfo-roundedRectRadius="12" basicInfo-polygonSides="6" basicInfo-starPoints="5" bounding="rect(-7.34271,-7.1741,14.6854,14.3482)" text="" font-familyName="Apple SD 산돌고딕 Neo" font-pixelSize="17" font-bold="1" font-underline="0" font-alignment="1" strokeStyle="0" markerStart="0" markerEnd="0" shadowEnabled="0" shadowOffsetX="0" shadowOffsetY="2" shadowBlur="4" shadowOpacity="160" blurEnabled="0" blurRadius="4" transform="matrix(1.2274,0,0,1.39743,286.657,353.283)" pers-center="0,0" pers-size="0,0" pers-start="0,0" pers-end="0,0" locked="0" mesh="" flag=""/>
            <path id="shapePath10" d="M295.669,363.309 L277.645,363.309 L277.645,343.258 " style="stroke:#3888a1;stroke-opacity:1;stroke-width:2;stroke-linejoin:miter;stroke-miterlimit:2;stroke-linecap:round;fill-rule:evenodd;fill:#e6f8f5;fill-opacity:1;"/>
        </g>
        <g id="Shape11">
            <desc shapeID="11" type="0" basicInfo-basicType="0" basicInfo-roundedRectRadius="12" basicInfo-polygonSides="6" basicInfo-starPoints="5" bounding="rect(-26.4667,-32.6566,52.9334,65.3133)" text="" font-familyName="Apple SD 산돌고딕 Neo" font-pixelSize="17" font-bold="1" font-underline="0" font-alignment="1" strokeStyle="0" markerStart="0" markerEnd="0" shadowEnabled="0" shadowOffsetX="0" shadowOffsetY="2" shadowBlur="4" shadowOpacity="160" blurEnabled="0" blurRadius="4" transform="matrix(1.3599,0,0,1.3595,506.946,241.606)" pers-center="0,0" pers-size="0,0" pers-start="0,0" pers-end="0,0" locked="0" mesh="" flag=""/>
            <path id="shapePath11" d="M470.954,197.209 L523.837,197.209 C531.865,204.953 536.359,209.26 542.938,216.864 L542.938,286.002 L470.954,286.002 L470.954,197.209 Z" style="stroke:#3888a1;stroke-opacity:1;stroke-width:2;stroke-linejoin:miter;stroke-miterlimit:2;stroke-linecap:round;fill-rule:evenodd;fill:#ffffff;fill-opacity:0.690196;"/>
        </g>
        <g id="Shape12">
            <desc shapeID="12" type="0" basicInfo-basicType="0" basicInfo-roundedRectRadius="12" basicInfo-polygonSides="6" basicInfo-starPoints="5" bounding="rect(-7.34271,-7.1741,14.6854,14.3482)" text="" font-familyName="Apple SD 산돌고딕 Neo" font-pixelSize="17" font-bold="1" font-underline="0" font-alignment="1" strokeStyle="0" markerStart="0" markerEnd="0" shadowEnabled="0" shadowOffsetX="0" shadowOffsetY="2" shadowBlur="4" shadowOpacity="160" blurEnabled="0" blurRadius="4" transform="matrix(1.2274,0,0,1.39743,533.163,208.058)" pers-center="0,0" pers-size="0,0" pers-start="0,0" pers-end="0,0" locked="0" mesh="" flag=""/>
            <path id="shapePath12" d="M542.175,218.083 L524.15,218.083 L524.15,198.033 " style="stroke:#3888a1;stroke-opacity:1;stroke-width:2;stroke-linejoin:miter;stroke-miterlimit:2;stroke-linecap:round;fill-rule:evenodd;fill:#e6f8f5;fill-opacity:1;"/>
        </g>
    </g>
    <g id="Layer3" name="Layer 3" opacity="1">
        <g id="Shape13">
            <desc shapeID="13" type="2" basicInfo-basicType="0" basicInfo-roundedRectRadius="12" basicInfo-polygonSides="6" basicInfo-starPoints="5" bounding="rect(-30.2672,-11.9148,60.5343,23.8295)" text=".md" font-familyName="Apple SD 산돌고딕 Neo" font-pixelSize="17" font-bold="1" font-underline="0" font-alignment="1" strokeStyle="0" markerStart="0" markerEnd="0" shadowEnabled="0" shadowOffsetX="0" shadowOffsetY="2" shadowBlur="4" shadowOpacity="160" blurEnabled="0" blurRadius="4" transform="matrix(1,0,0,1,155.991,230.969)" pers-center="0,0" pers-size="0,0" pers-start="0,0" pers-end="0,0" locked="0" mesh="" flag=""/>
            <path id="shapePath13" d="M142.893,236.247 L144.967,236.247 L144.967,234.258 L142.893,234.258 L142.893,236.247 M147.209,235.975 L149.164,235.975 L149.164,229.175 C149.691,228.903 150.337,228.699 150.966,228.699 C151.952,228.699 152.309,229.056 152.309,229.923 L152.309,235.975 L154.23,235.975 L154.23,229.583 C154.23,229.413 154.213,229.328 154.196,229.192 C154.859,228.869 155.437,228.699 156.015,228.699 C157.018,228.699 157.358,229.056 157.358,229.923 L157.358,235.975 L159.296,235.975 L159.296,229.464 C159.296,227.73 158.429,227.067 156.882,227.067 C155.896,227.067 154.91,227.441 154.009,228.053 L153.907,228.053 C153.516,227.373 152.836,227.067 151.833,227.067 C150.813,227.067 149.912,227.475 149.164,228.002 L149.096,228.002 L149.096,227.22 L147.209,227.22 L147.209,235.975 M164.664,236.128 C165.786,236.128 166.602,235.788 167.146,235.278 L167.214,235.278 L167.384,235.975 L169.05,235.975 L169.05,223.548 L167.112,223.548 L167.112,227.56 C166.704,227.339 166.041,227.067 165.021,227.067 C162.743,227.067 161.111,228.427 161.111,231.64 L161.111,231.861 C161.111,235.023 162.93,236.128 164.664,236.128 M165.344,234.615 C164.018,234.615 163.117,233.952 163.117,231.776 L163.117,231.453 C163.117,229.294 163.967,228.58 165.327,228.58 C166.109,228.58 166.789,228.784 167.112,229.039 L167.112,234.02 C166.772,234.275 166.16,234.615 165.344,234.615 Z" style="stroke:none;fill-rule:nonzero;fill:#34639e;fill-opacity:0.686275;"/>
        </g>
        <g id="Shape14">
            <desc shapeID="14" type="2" basicInfo-basicType="0" basicInfo-roundedRectRadius="12" basicInfo-polygonSides="6" basicInfo-starPoints="5" bounding="rect(-30.2672,-11.9148,60.5343,23.8295)" text=".pdf" font-familyName="Apple SD 산돌고딕 Neo" font-pixelSize="17" font-bold="1" font-underline="0" font-alignment="1" strokeStyle="0" markerStart="0" markerEnd="0" shadowEnabled="0" shadowOffsetX="0" shadowOffsetY="2" shadowBlur="4" shadowOpacity="160" blurEnabled="0" blurRadius="4" transform="matrix(1,0,0,1,277.949,71.1287)" pers-center="0,0" pers-size="0,0" pers-start="0,0" pers-end="0,0" locked="0" mesh="" flag=""/>
            <path id="shapePath14" d="M264.132,76.4068 L266.206,76.4068 L266.206,74.4178 L264.132,74.4178 L264.132,76.4068 M268.449,78.6678 L270.404,78.6678 L270.404,75.7948 C270.829,76.0328 271.475,76.2878 272.444,76.2878 C274.824,76.2878 276.405,74.9958 276.405,71.7148 L276.405,71.4938 C276.405,68.2808 274.756,67.2268 272.937,67.2268 C271.832,67.2268 270.931,67.6008 270.404,68.1278 L270.336,68.1278 L270.336,67.3798 L268.449,67.3798 L268.449,78.6678 M272.172,74.8088 C271.407,74.8088 270.744,74.5708 270.404,74.2988 L270.404,69.3348 C270.744,69.0968 271.407,68.8248 272.24,68.8248 C273.617,68.8248 274.365,69.4538 274.365,71.6128 L274.365,71.9698 C274.365,74.0948 273.566,74.8088 272.172,74.8088 M281.357,76.2878 C282.479,76.2878 283.295,75.9478 283.839,75.4378 L283.907,75.4378 L284.077,76.1348 L285.743,76.1348 L285.743,63.7078 L283.805,63.7078 L283.805,67.7198 C283.397,67.4988 282.734,67.2268 281.714,67.2268 C279.436,67.2268 277.804,68.5868 277.804,71.7998 L277.804,72.0208 C277.804,75.1828 279.623,76.2878 281.357,76.2878 M282.037,74.7748 C280.711,74.7748 279.81,74.1118 279.81,71.9358 L279.81,71.6128 C279.81,69.4538 280.66,68.7398 282.02,68.7398 C282.802,68.7398 283.482,68.9438 283.805,69.1988 L283.805,74.1798 C283.465,74.4348 282.853,74.7748 282.037,74.7748 M288.587,76.1348 L290.508,76.1348 L290.508,68.9098 L292.429,68.9098 L292.429,67.3798 L290.508,67.3798 L290.508,66.4958 C290.508,65.4588 291.018,65.0338 291.936,65.0338 C292.446,65.0338 292.82,65.1018 293.058,65.1528 L293.058,63.8438 C292.735,63.7078 292.191,63.5718 291.409,63.5718 C289.76,63.5718 288.587,64.4048 288.587,66.2918 L288.587,67.3798 L287.329,67.3798 L287.329,68.9098 L288.587,68.9098 L288.587,76.1348 Z" style="stroke:none;fill-rule:nonzero;fill:#34639e;fill-opacity:0.686275;"/>
        </g>
        <g id="Shape15">
            <desc shapeID="15" type="2" basicInfo-basicType="0" basicInfo-roundedRectRadius="12" basicInfo-polygonSides="6" basicInfo-starPoints="5" bounding="rect(-30.2672,-11.9148,60.5343,23.8295)" text=".epub" font-familyName="Apple SD 산돌고딕 Neo" font-pixelSize="17" font-bold="1" font-underline="0" font-alignment="1" strokeStyle="0" markerStart="0" markerEnd="0" shadowEnabled="0" shadowOffsetX="0" shadowOffsetY="2" shadowBlur="4" shadowOpacity="160" blurEnabled="0" blurRadius="4" transform="matrix(1,0,0,1,410.523,101.769)" pers-center="0,0" pers-size="0,0" pers-start="0,0" pers-end="0,0" locked="0" mesh="" flag=""/>
            <path id="shapePath15" d="M390.425,107.047 L392.499,107.047 L392.499,105.058 L390.425,105.058 L390.425,107.047 M398.584,106.928 C400.063,106.928 401.083,106.503 401.678,106.112 L401.678,104.752 C400.913,105.143 400.097,105.398 398.975,105.398 C397.309,105.398 396.374,104.752 396.255,102.933 L401.967,102.933 L401.967,102.117 C401.967,99.3288 400.845,97.8838 398.261,97.8838 C396.034,97.8838 394.249,99.3288 394.249,102.27 L394.249,102.508 C394.249,105.279 395.677,106.928 398.584,106.928 M398.227,99.3288 C399.366,99.3288 399.978,99.9408 399.978,101.59 L396.255,101.59 C396.391,99.8048 397.326,99.3288 398.227,99.3288 M403.758,109.308 L405.713,109.308 L405.713,106.435 C406.138,106.673 406.784,106.928 407.753,106.928 C410.133,106.928 411.714,105.636 411.714,102.355 L411.714,102.134 C411.714,98.9208 410.065,97.8668 408.246,97.8668 C407.141,97.8668 406.24,98.2408 405.713,98.7678 L405.645,98.7678 L405.645,98.0198 L403.758,98.0198 L403.758,109.308 M407.481,105.449 C406.716,105.449 406.053,105.211 405.713,104.939 L405.713,99.9748 C406.053,99.7368 406.716,99.4648 407.549,99.4648 C408.926,99.4648 409.674,100.094 409.674,102.253 L409.674,102.61 C409.674,104.735 408.875,105.449 407.481,105.449 M416.155,106.928 C417.26,106.928 418.11,106.537 418.841,106.01 L418.926,106.01 L419.096,106.775 L420.796,106.775 L420.796,98.0198 L418.841,98.0198 L418.841,104.82 C418.28,105.075 417.651,105.347 416.886,105.347 C415.798,105.347 415.458,104.956 415.458,104.004 L415.458,98.0198 L413.503,98.0198 L413.503,104.378 C413.503,106.095 414.455,106.928 416.155,106.928 M426.503,106.962 C429.461,106.962 431.042,105.398 431.042,102.304 L431.042,102.1 C431.042,98.8698 429.342,97.8668 427.71,97.8668 C426.554,97.8668 425.772,98.1898 425.126,98.6148 L425.041,98.6148 L425.041,94.3478 L423.086,94.3478 L423.086,106.452 C423.902,106.775 425.33,106.962 426.503,106.962 M426.622,105.466 C425.874,105.466 425.381,105.33 425.041,105.211 L425.041,99.8898 C425.398,99.7198 426.061,99.4648 426.792,99.4648 C428.305,99.4648 429.002,100.128 429.002,102.253 L429.002,102.593 C429.002,104.871 427.897,105.466 426.622,105.466 Z" style="stroke:none;fill-rule:nonzero;fill:#34639e;fill-opacity:0.686275;"/>
        </g>
        <g id="Shape16">
            <desc shapeID="16" type="2" basicInfo-basicType="0" basicInfo-roundedRectRadius="12" basicInfo-polygonSides="6" basicInfo-starPoints="5" bounding="rect(-30.2672,-11.9148,60.5343,23.8295)" text=".html" font-familyName="Apple SD 산돌고딕 Neo" font-pixelSize="17" font-bold="1" font-underline="0" font-alignment="1" strokeStyle="0" markerStart="0" markerEnd="0" shadowEnabled="0" shadowOffsetX="0" shadowOffsetY="2" shadowBlur="4" shadowOpacity="160" blurEnabled="0" blurRadius="4" transform="matrix(1,0,0,1,506.946,245.983)" pers-center="0,0" pers-size="0,0" pers-start="0,0" pers-end="0,0" locked="0" mesh="" flag=""/>
            <path id="shapePath16" d="M488.551,251.261 L490.625,251.261 L490.625,249.272 L488.551,249.272 L488.551,251.261 M492.868,250.989 L494.823,250.989 L494.823,244.189 C495.35,243.934 496.115,243.713 496.795,243.713 C497.985,243.713 498.274,244.07 498.274,244.954 L498.274,250.989 L500.246,250.989 L500.246,244.495 C500.246,242.761 499.379,242.081 497.696,242.081 C496.642,242.081 495.622,242.455 494.908,242.982 L494.823,242.982 L494.823,238.562 L492.868,238.562 L492.868,250.989 M505.485,251.091 C506.301,251.091 506.777,250.904 507.117,250.734 L507.117,249.425 C506.811,249.51 506.454,249.561 506.114,249.561 C505.196,249.561 504.924,249.289 504.924,248.558 L504.924,243.764 L507.015,243.764 L507.015,242.234 L504.924,242.234 L504.924,240.177 L503.003,240.177 L503.003,242.234 L501.779,242.234 L501.779,243.764 L503.003,243.764 L503.003,248.83 C503.003,250.479 503.972,251.091 505.485,251.091 M508.899,250.989 L510.854,250.989 L510.854,244.189 C511.381,243.917 512.027,243.713 512.656,243.713 C513.642,243.713 513.999,244.07 513.999,244.937 L513.999,250.989 L515.92,250.989 L515.92,244.597 C515.92,244.427 515.903,244.342 515.886,244.206 C516.549,243.883 517.127,243.713 517.705,243.713 C518.708,243.713 519.048,244.07 519.048,244.937 L519.048,250.989 L520.986,250.989 L520.986,244.478 C520.986,242.744 520.119,242.081 518.572,242.081 C517.586,242.081 516.6,242.455 515.699,243.067 L515.597,243.067 C515.206,242.387 514.526,242.081 513.523,242.081 C512.503,242.081 511.602,242.489 510.854,243.016 L510.786,243.016 L510.786,242.234 L508.899,242.234 L508.899,250.989 M523.277,250.989 L525.249,250.989 L525.249,238.562 L523.277,238.562 L523.277,250.989 Z" style="stroke:none;fill-rule:nonzero;fill:#34639e;fill-opacity:0.686275;"/>
        </g>
        <g id="Shape17">
            <desc shapeID="17" type="2" basicInfo-basicType="0" basicInfo-roundedRectRadius="12" basicInfo-polygonSides="6" basicInfo-starPoints="5" bounding="rect(-30.2672,-11.9148,60.5343,23.8295)" text=".docx" font-familyName="Apple SD 산돌고딕 Neo" font-pixelSize="17" font-bold="1" font-underline="0" font-alignment="1" strokeStyle="0" markerStart="0" markerEnd="0" shadowEnabled="0" shadowOffsetX="0" shadowOffsetY="2" shadowBlur="4" shadowOpacity="160" blurEnabled="0" blurRadius="4" transform="matrix(1,0,0,1,381.745,372.881)" pers-center="0,0" pers-size="0,0" pers-start="0,0" pers-end="0,0" locked="0" mesh="" flag=""/>
            <path id="shapePath17" d="M362.6,378.159 L364.674,378.159 L364.674,376.17 L362.6,376.17 L362.6,378.159 M370.027,378.04 C371.149,378.04 371.965,377.7 372.509,377.19 L372.577,377.19 L372.747,377.887 L374.413,377.887 L374.413,365.46 L372.475,365.46 L372.475,369.472 C372.067,369.251 371.404,368.979 370.384,368.979 C368.106,368.979 366.474,370.339 366.474,373.552 L366.474,373.773 C366.474,376.935 368.293,378.04 370.027,378.04 M370.707,376.527 C369.381,376.527 368.48,375.864 368.48,373.688 L368.48,373.365 C368.48,371.206 369.33,370.492 370.69,370.492 C371.472,370.492 372.152,370.696 372.475,370.951 L372.475,375.932 C372.135,376.187 371.523,376.527 370.707,376.527 M380.368,378.04 C382.816,378.04 384.516,376.425 384.516,373.603 L384.516,373.365 C384.516,370.577 383.003,368.979 380.385,368.979 C377.92,368.979 376.22,370.611 376.22,373.416 L376.22,373.688 C376.22,376.425 377.699,378.04 380.368,378.04 M380.402,376.561 C379.178,376.561 378.226,375.949 378.226,373.688 L378.226,373.28 C378.226,371.393 379.008,370.458 380.351,370.458 C381.541,370.458 382.476,371.07 382.476,373.348 L382.476,373.773 C382.476,375.66 381.711,376.561 380.402,376.561 M389.996,378.04 C391.203,378.04 392.019,377.717 392.58,377.36 L392.58,375.932 C392.138,376.136 391.407,376.476 390.336,376.476 C388.67,376.476 387.837,375.626 387.837,373.62 L387.837,373.229 C387.837,371.478 388.738,370.56 390.2,370.56 C391.237,370.56 391.764,370.747 392.495,371.036 L392.495,369.506 C391.934,369.2 391.237,368.979 390.081,368.979 C387.65,368.979 385.814,370.407 385.814,373.433 L385.814,373.705 C385.814,376.595 387.412,378.04 389.996,378.04 M393.46,377.887 L395.5,377.887 L397.455,374.708 L399.376,377.887 L401.671,377.887 L398.849,373.382 L401.433,369.132 L399.41,369.132 L397.727,372.158 L395.874,369.132 L393.613,369.132 L396.316,373.399 L393.46,377.887 Z" style="stroke:none;fill-rule:nonzero;fill:#34639e;fill-opacity:0.686275;"/>
        </g>
        <g id="Shape18">
            <desc shapeID="18" type="2" basicInfo-basicType="0" basicInfo-roundedRectRadius="12" basicInfo-polygonSides="6" basicInfo-starPoints="5" bounding="rect(-30.2672,-11.9148,60.5343,23.8295)" text=".odt" font-familyName="Apple SD 산돌고딕 Neo" font-pixelSize="17" font-bold="1" font-underline="0" font-alignment="1" strokeStyle="0" markerStart="0" markerEnd="0" shadowEnabled="0" shadowOffsetX="0" shadowOffsetY="2" shadowBlur="4" shadowOpacity="160" blurEnabled="0" blurRadius="4" transform="matrix(1,0,0,1,260.441,391.755)" pers-center="0,0" pers-size="0,0" pers-start="0,0" pers-end="0,0" locked="0" mesh="" flag=""/>
            <path id="shapePath18" d="M246.514,397.033 L248.588,397.033 L248.588,395.044 L246.514,395.044 L246.514,397.033 M254.486,396.914 C256.934,396.914 258.634,395.299 258.634,392.477 L258.634,392.239 C258.634,389.451 257.121,387.853 254.503,387.853 C252.038,387.853 250.338,389.485 250.338,392.29 L250.338,392.562 C250.338,395.299 251.817,396.914 254.486,396.914 M254.52,395.435 C253.296,395.435 252.344,394.823 252.344,392.562 L252.344,392.154 C252.344,390.267 253.126,389.332 254.469,389.332 C255.659,389.332 256.594,389.944 256.594,392.222 L256.594,392.647 C256.594,394.534 255.829,395.435 254.52,395.435 M263.536,396.914 C264.658,396.914 265.474,396.574 266.018,396.064 L266.086,396.064 L266.256,396.761 L267.922,396.761 L267.922,384.334 L265.984,384.334 L265.984,388.346 C265.576,388.125 264.913,387.853 263.893,387.853 C261.615,387.853 259.983,389.213 259.983,392.426 L259.983,392.647 C259.983,395.809 261.802,396.914 263.536,396.914 M264.216,395.401 C262.89,395.401 261.989,394.738 261.989,392.562 L261.989,392.239 C261.989,390.08 262.839,389.366 264.199,389.366 C264.981,389.366 265.661,389.57 265.984,389.825 L265.984,394.806 C265.644,395.061 265.032,395.401 264.216,395.401 M273.214,396.863 C274.03,396.863 274.506,396.676 274.846,396.506 L274.846,395.197 C274.54,395.282 274.183,395.333 273.843,395.333 C272.925,395.333 272.653,395.061 272.653,394.33 L272.653,389.536 L274.744,389.536 L274.744,388.006 L272.653,388.006 L272.653,385.949 L270.732,385.949 L270.732,388.006 L269.508,388.006 L269.508,389.536 L270.732,389.536 L270.732,394.602 C270.732,396.251 271.701,396.863 273.214,396.863 Z" style="stroke:none;fill-rule:nonzero;fill:#34639e;fill-opacity:0.686275;"/>
        </g>
    </g>
    <g id="Layer4" name="Layer 5" opacity="1">
        <g id="Shape19">
            <desc shapeID="19" type="0" basicInfo-basicType="0" basicInfo-roundedRectRadius="12" basicInfo-polygonSides="6" basicInfo-starPoints="5" bounding="rect(-36.3851,-44.5922,72.7702,89.1845)" text="" font-familyName="Apple SD 산돌고딕 Neo" font-pixelSize="17" font-bold="1" font-underline="0" font-alignment="1" strokeStyle="0" markerStart="0" markerEnd="0" shadowEnabled="0" shadowOffsetX="0" shadowOffsetY="2" shadowBlur="4" shadowOpacity="160" blurEnabled="0" blurRadius="4" transform="matrix(1,0,0,1,239.102,174.539)" pers-center="0,0" pers-size="0,0" pers-start="0,0" pers-end="0,0" locked="0" mesh="" flag=""/>
            <path id="shapePath19" d="M202.717,219.131 C202.717,219.131 274.94,200.528 275.487,129.947 " style="stroke:#5197ad;stroke-opacity:1;stroke-width:4;stroke-linejoin:miter;stroke-miterlimit:2;stroke-linecap:round;fill:none;"/>
        </g>
        <g id="Shape20">
            <desc shapeID="20" type="0" basicInfo-basicType="0" basicInfo-roundedRectRadius="12" basicInfo-polygonSides="6" basicInfo-starPoints="5" bounding="rect(-102.422,-39.0884,204.843,78.1768)" text="" font-familyName="Apple SD 산돌고딕 Neo" font-pixelSize="17" font-bold="1" font-underline="0" font-alignment="1" strokeStyle="0" markerStart="0" markerEnd="0" shadowEnabled="0" shadowOffsetX="0" shadowOffsetY="2" shadowBlur="4" shadowOpacity="160" blurEnabled="0" blurRadius="4" transform="matrix(1,0,0,1,304.791,191.979)" pers-center="0,0" pers-size="0,0" pers-start="0,0" pers-end="0,0" locked="0" mesh="" flag=""/>
            <path id="shapePath20" d="M202.369,231.067 C293.163,225.377 351.796,211.275 407.212,152.89 " style="stroke:#5197ad;stroke-opacity:1;stroke-width:4;stroke-linejoin:miter;stroke-miterlimit:2;stroke-linecap:round;fill:none;"/>
        </g>
        <g id="Shape21">
            <desc shapeID="21" type="0" basicInfo-basicType="0" basicInfo-roundedRectRadius="12" basicInfo-polygonSides="6" basicInfo-starPoints="5" bounding="rect(-26.98,-30.6486,53.9599,61.2971)" text="" font-familyName="Apple SD 산돌고딕 Neo" font-pixelSize="17" font-bold="1" font-underline="0" font-alignment="1" strokeStyle="0" markerStart="0" markerEnd="0" shadowEnabled="0" shadowOffsetX="0" shadowOffsetY="2" shadowBlur="4" shadowOpacity="160" blurEnabled="0" blurRadius="4" transform="matrix(1,0,0,1,229.403,294.42)" pers-center="0,0" pers-size="0,0" pers-start="0,0" pers-end="0,0" locked="0" mesh="" flag=""/>
            <path id="shapePath21" d="M202.423,263.772 C202.423,263.772 255.835,270.522 256.383,325.069 " style="stroke:#5197ad;stroke-opacity:1;stroke-width:4;stroke-linejoin:miter;stroke-miterlimit:2;stroke-linecap:round;fill:none;"/>
        </g>
        <g id="Shape22">
            <desc shapeID="22" type="0" basicInfo-basicType="0" basicInfo-roundedRectRadius="12" basicInfo-polygonSides="6" basicInfo-starPoints="5" bounding="rect(-80.5763,-31.6075,161.153,63.215)" text="" font-familyName="Apple SD 산돌고딕 Neo" font-pixelSize="17" font-bold="1" font-underline="0" font-alignment="1" strokeStyle="0" markerStart="0" markerEnd="0" shadowEnabled="0" shadowOffsetX="0" shadowOffsetY="2" shadowBlur="4" shadowOpacity="160" blurEnabled="0" blurRadius="4" transform="matrix(1,0,0,1,284.668,282.592)" pers-center="0,0" pers-size="0,0" pers-start="0,0" pers-end="0,0" locked="0" mesh="" flag=""/>
            <path id="shapePath22" d="M204.092,250.985 C204.092,250.985 300.906,259.007 365.244,314.2 " style="stroke:#5197ad;stroke-opacity:1;stroke-width:4;stroke-linejoin:miter;stroke-miterlimit:2;stroke-linecap:round;fill:none;"/>
        </g>
        <g id="Shape23">
            <desc shapeID="23" type="0" basicInfo-basicType="0" basicInfo-roundedRectRadius="12" basicInfo-polygonSides="6" basicInfo-starPoints="5" bounding="rect(-123.625,-0.979211,247.251,1.95842)" text="" font-familyName="Apple SD 산돌고딕 Neo" font-pixelSize="17" font-bold="1" font-underline="0" font-alignment="1" strokeStyle="0" markerStart="0" markerEnd="0" shadowEnabled="0" shadowOffsetX="0" shadowOffsetY="2" shadowBlur="4" shadowOpacity="160" blurEnabled="0" blurRadius="4" transform="matrix(1,0,0,1,327.596,241.78)" pers-center="0,0" pers-size="0,0" pers-start="0,0" pers-end="0,0" locked="0" mesh="" flag=""/>
            <path id="shapePath23" d="M203.971,240.801 C203.971,240.801 375.027,242.048 451.221,242.759 " style="stroke:#5197ad;stroke-opacity:1;stroke-width:4;stroke-linejoin:miter;stroke-miterlimit:2;stroke-linecap:round;fill:none;"/>
        </g>
    </g>
    <g id="Layer5" name="Layer 4" opacity="1">
        <g id="Shape24">
            <desc shapeID="24" type="0" basicInfo-basicType="5" basicInfo-roundedRectRadius="12" basicInfo-polygonSides="6" basicInfo-starPoints="5" bounding="rect(-6.09973,-5.87917,12.1995,11.7583)" text="" font-familyName="Apple SD 산돌고딕 Neo" font-pixelSize="17" font-bold="1" font-underline="0" font-alignment="1" strokeStyle="0" markerStart="0" markerEnd="0" shadowEnabled="0" shadowOffsetX="0" shadowOffsetY="2" shadowBlur="4" shadowOpacity="160" blurEnabled="0" blurRadius="4" transform="matrix(-0.0119874,-1.34904,1.34904,-0.0119874,275.164,125.584)" pers-center="0,0" pers-size="0,0" pers-start="0,0" pers-end="0,0" locked="0" mesh="" flag=""/>
            <path id="shapePath24" d="M275.091,117.356 L283.168,133.743 L267.306,133.884 L275.091,117.356 Z" style="stroke:none;fill-rule:evenodd;fill:#5197ad;fill-opacity:1;"/>
        </g>
        <g id="Shape25">
            <desc shapeID="25" type="0" basicInfo-basicType="5" basicInfo-roundedRectRadius="12" basicInfo-polygonSides="6" basicInfo-starPoints="5" bounding="rect(-6.09973,-5.87917,12.1995,11.7583)" text="" font-familyName="Apple SD 산돌고딕 Neo" font-pixelSize="17" font-bold="1" font-underline="0" font-alignment="1" strokeStyle="0" markerStart="0" markerEnd="0" shadowEnabled="0" shadowOffsetX="0" shadowOffsetY="2" shadowBlur="4" shadowOpacity="160" blurEnabled="0" blurRadius="4" transform="matrix(1.34893,0.0209066,-0.0209066,1.34893,456.083,242.912)" pers-center="0,0" pers-size="0,0" pers-start="0,0" pers-end="0,0" locked="0" mesh="" flag=""/>
            <path id="shapePath25" d="M464.311,243.039 L447.732,250.715 L447.978,234.853 L464.311,243.039 Z" style="stroke:none;fill-rule:evenodd;fill:#5197ad;fill-opacity:1;"/>
        </g>
        <g id="Shape26">
            <desc shapeID="26" type="0" basicInfo-basicType="5" basicInfo-roundedRectRadius="12" basicInfo-polygonSides="6" basicInfo-starPoints="5" bounding="rect(-6.09973,-5.87917,12.1995,11.7583)" text="" font-familyName="Apple SD 산돌고딕 Neo" font-pixelSize="17" font-bold="1" font-underline="0" font-alignment="1" strokeStyle="0" markerStart="0" markerEnd="0" shadowEnabled="0" shadowOffsetX="0" shadowOffsetY="2" shadowBlur="4" shadowOpacity="160" blurEnabled="0" blurRadius="4" transform="matrix(0.0127649,1.34903,-1.34903,0.0127649,256.182,329.825)" pers-center="0,0" pers-size="0,0" pers-start="0,0" pers-end="0,0" locked="0" mesh="" flag=""/>
            <path id="shapePath26" d="M256.26,338.054 L248.173,321.672 L264.035,321.522 L256.26,338.054 Z" style="stroke:none;fill-rule:evenodd;fill:#5197ad;fill-opacity:1;"/>
        </g>
        <g id="Shape27">
            <desc shapeID="27" type="0" basicInfo-basicType="5" basicInfo-roundedRectRadius="12" basicInfo-polygonSides="6" basicInfo-starPoints="5" bounding="rect(-6.09973,-5.87917,12.1995,11.7583)" text="" font-familyName="Apple SD 산돌고딕 Neo" font-pixelSize="17" font-bold="1" font-underline="0" font-alignment="1" strokeStyle="0" markerStart="0" markerEnd="0" shadowEnabled="0" shadowOffsetX="0" shadowOffsetY="2" shadowBlur="4" shadowOpacity="160" blurEnabled="0" blurRadius="4" transform="matrix(0.875661,-1.02628,1.02628,0.875661,407.507,151.609)" pers-center="0,0" pers-size="0,0" pers-start="0,0" pers-end="0,0" locked="0" mesh="" flag=""/>
            <path id="shapePath27" d="M412.848,145.349 L408.199,163.018 L396.132,152.721 L412.848,145.349 Z" style="stroke:none;fill-rule:evenodd;fill:#5197ad;fill-opacity:1;"/>
        </g>
        <g id="Shape28">
            <desc shapeID="28" type="0" basicInfo-basicType="5" basicInfo-roundedRectRadius="12" basicInfo-polygonSides="6" basicInfo-starPoints="5" bounding="rect(-6.09973,-5.87917,12.1995,11.7583)" text="" font-familyName="Apple SD 산돌고딕 Neo" font-pixelSize="17" font-bold="1" font-underline="0" font-alignment="1" strokeStyle="0" markerStart="0" markerEnd="0" shadowEnabled="0" shadowOffsetX="0" shadowOffsetY="2" shadowBlur="4" shadowOpacity="160" blurEnabled="0" blurRadius="4" transform="matrix(0.992556,0.913714,-0.913714,0.992556,364.216,313.83)" pers-center="0,0" pers-size="0,0" pers-start="0,0" pers-end="0,0" locked="0" mesh="" flag=""/>
            <path id="shapePath28" d="M370.271,319.404 L352.79,314.092 L363.534,302.421 L370.271,319.404 Z" style="stroke:none;fill-rule:evenodd;fill:#5197ad;fill-opacity:1;"/>
        </g>
    </g>
</svg>
