<?xml version="1.0"?>
<svg version="1.1" xmlns="http://www.w3.org/2000/svg" xmlns:xlink="http://www.w3.org/1999/xlink" width="640" height="480">
    <desc iVinci="yes" version="4.6" gridStep="20" showGrid="no" snapToGrid="no" codePlatform="0"/>
    <g id="Layer1" name="Layer 1" opacity="1"/>
    <g id="Layer2" name="Layer 2" opacity="1">
        <g id="Shape1">
            <desc shapeID="1" type="0" basicInfo-basicType="0" basicInfo-roundedRectRadius="12" basicInfo-polygonSides="6" basicInfo-starPoints="5" bounding="rect(-26.4667,-32.6566,52.9334,65.3133)" text="" font-familyName="Apple SD 산돌고딕 Neo" font-pixelSize="17" font-bold="1" font-underline="0" font-alignment="1" strokeStyle="0" markerStart="0" markerEnd="0" shadowEnabled="0" shadowOffsetX="0" shadowOffsetY="2" shadowBlur="4" shadowOpacity="160" blurEnabled="0" blurRadius="4" transform="matrix(1.3599,0,0,1.3595,155.548,230.082)" pers-center="0,0" pers-size="0,0" pers-start="0,0" pers-end="0,0" locked="0" mesh="" flag=""/>
            <path id="shapePath1" d="M119.556,185.685 L172.439,185.685 C180.468,193.429 184.961,197.737 191.54,205.341 L191.54,274.479 L119.556,274.479 L119.556,185.685 Z" style="stroke:#3888a1;stroke-opacity:1;stroke-width:2;stroke-linejoin:miter;stroke-miterlimit:2;stroke-linecap:round;fill-rule:evenodd;fill:#ffffff;fill-opacity:0.690196;"/>
        </g>
        <g id="Shape2">
            <desc shapeID="2" type="0" basicInfo-basicType="0" basicInfo-roundedRectRadius="12" basicInfo-polygonSides="6" basicInfo-starPoints="5" bounding="rect(-7.34271,-7.1741,14.6854,14.3482)" text="" font-familyName="Apple SD 산돌고딕 Neo" font-pixelSize="17" font-bold="1" font-underline="0" font-alignment="1" strokeStyle="0" markerStart="0" markerEnd="0" shadowEnabled="0" shadowOffsetX="0" shadowOffsetY="2" shadowBlur="4" shadowOpacity="160" blurEnabled="0" blurRadius="4" transform="matrix(1.2274,0,0,1.39743,181.765,196.535)" pers-center="0,0" pers-size="0,0" pers-start="0,0" pers-end="0,0" locked="0" mesh="" flag=""/>
            <path id="shapePath2" d="M190.777,206.56 L172.753,206.56 L172.753,186.509 " style="stroke:#3888a1;stroke-opacity:1;stroke-width:2;stroke-linejoin:miter;stroke-miterlimit:2;stroke-linecap:round;fill-rule:evenodd;fill:#e6f8f5;fill-opacity:1;"/>
        </g>
        <g id="Shape3">
            <desc shapeID="3" type="0" basicInfo-basicType="0" basicInfo-roundedRectRadius="12" basicInfo-polygonSides="6" basicInfo-starPoints="5" bounding="rect(-26.4667,-32.6566,52.9334,65.3133)" text="" font-familyName="Apple SD 산돌고딕 Neo" font-pixelSize="17" font-bold="1" font-underline="0" font-alignment="1" strokeStyle="0" markerStart="0" markerEnd="0" shadowEnabled="0" shadowOffsetX="0" shadowOffsetY="2" shadowBlur="4" shadowOpacity="160" blurEnabled="0" blurRadius="4" transform="matrix(1.3599,0,0,1.3595,278.496,70.0344)" pers-center="0,0" pers-size="0,0" pers-start="0,0" pers-end="0,0" locked="0" mesh="" flag=""/>
            <path id="shapePath3" d="M242.504,25.6377 L295.387,25.6377 C303.415,33.3814 307.909,37.6889 314.488,45.2928 L314.488,114.431 L242.504,114.431 L242.504,25.6377 Z" style="stroke:#3888a1;stroke-opacity:1;stroke-width:2;stroke-linejoin:miter;stroke-miterlimit:2;stroke-linecap:round;fill-rule:evenodd;fill:#ffffff;fill-opacity:0.690196;"/>
        </g>
        <g id="Shape4">
            <desc shapeID="4" type="0" basicInfo-basicType="0" basicInfo-roundedRectRadius="12" basicInfo-polygonSides="6" basicInfo-starPoints="5" bounding="rect(-7.34271,-7.1741,14.6854,14.3482)" text="" font-familyName="Apple SD 산돌고딕 Neo" font-pixelSize="17" font-bold="1" font-underline="0" font-alignment="1" strokeStyle="0" markerStart="0" markerEnd="0" shadowEnabled="0" shadowOffsetX="0" shadowOffsetY="2" shadowBlur="4" shadowOpacity="160" blurEnabled="0" blurRadius="4" transform="matrix(1.2274,0,0,1.39743,304.713,36.487)" pers-center="0,0" pers-size="0,0" pers-start="0,0" pers-end="0,0" locked="0" mesh="" flag=""/>
            <path id="shapePath4" d="M313.725,46.5123 L295.7,46.5123 L295.7,26.4617 " style="stroke:#3888a1;stroke-opacity:1;stroke-width:2;stroke-linejoin:miter;stroke-miterlimit:2;stroke-linecap:round;fill-rule:evenodd;fill:#e6f8f5;fill-opacity:1;"/>
        </g>
        <g id="Shape5">
            <desc shapeID="5" type="0" basicInfo-basicType="0" basicInfo-roundedRectRadius="12" basicInfo-polygonSides="6" basicInfo-starPoints="5" bounding="rect(-26.4667,-32.6566,52.9334,65.3133)" text="" font-familyName="Apple SD 산돌고딕 Neo" font-pixelSize="17" font-bold="1" font-underline="0" font-alignment="1" strokeStyle="0" markerStart="0" markerEnd="0" shadowEnabled="0" shadowOffsetX="0" shadowOffsetY="2" shadowBlur="4" shadowOpacity="160" blurEnabled="0" blurRadius="4" transform="matrix(1.3599,0,0,1.3595,407.622,97.3916)" pers-center="0,0" pers-size="0,0" pers-start="0,0" pers-end="0,0" locked="0" mesh="" flag=""/>
            <path id="shapePath5" d="M371.63,52.9949 L424.513,52.9949 C432.541,60.7386 437.035,65.0462 443.614,72.65 L443.614,141.788 L371.63,141.788 L371.63,52.9949 Z" style="stroke:#3888a1;stroke-opacity:1;stroke-width:2;stroke-linejoin:miter;stroke-miterlimit:2;stroke-linecap:round;fill-rule:evenodd;fill:#ffffff;fill-opacity:0.690196;"/>
        </g>
        <g id="Shape6">
            <desc shapeID="6" type="0" basicInfo-basicType="0" basicInfo-roundedRectRadius="12" basicInfo-polygonSides="6" basicInfo-starPoints="5" bounding="rect(-7.34271,-7.1741,14.6854,14.3482)" text="" font-familyName="Apple SD 산돌고딕 Neo" font-pixelSize="17" font-bold="1" font-underline="0" font-alignment="1" strokeStyle="0" markerStart="0" markerEnd="0" shadowEnabled="0" shadowOffsetX="0" shadowOffsetY="2" shadowBlur="4" shadowOpacity="160" blurEnabled="0" blurRadius="4" transform="matrix(1.2274,0,0,1.39743,433.839,63.8443)" pers-center="0,0" pers-size="0,0" pers-start="0,0" pers-end="0,0" locked="0" mesh="" flag=""/>
            <path id="shapePath6" d="M442.851,73.8696 L424.826,73.8696 L424.826,53.819 " style="stroke:#3888a1;stroke-opacity:1;stroke-width:2;stroke-linejoin:miter;stroke-miterlimit:2;stroke-linecap:round;fill-rule:evenodd;fill:#e6f8f5;fill-opacity:1;"/>
        </g>
        <g id="Shape7">
            <desc shapeID="7" type="0" basicInfo-basicType="0" basicInfo-roundedRectRadius="12" basicInfo-polygonSides="6" basicInfo-starPoints="5" bounding="rect(-26.4667,-32.6566,52.9334,65.3133)" text="" font-familyName="Apple SD 산돌고딕 Neo" font-pixelSize="17" font-bold="1" font-underline="0" font-alignment="1" strokeStyle="0" markerStart="0" markerEnd="0" shadowEnabled="0" shadowOffsetX="0" shadowOffsetY="2" shadowBlur="4" shadowOpacity="160" blurEnabled="0" blurRadius="4" transform="matrix(1.3599,0,0,1.3595,389.566,353.455)" pers-center="0,0" pers-size="0,0" pers-start="0,0" pers-end="0,0" locked="0" mesh="" flag=""/>
            <path id="shapePath7" d="M353.574,309.058 L406.457,309.058 C414.486,316.802 418.979,321.11 425.558,328.713 L425.558,397.852 L353.574,397.852 L353.574,309.058 Z" style="stroke:#3888a1;stroke-opacity:1;stroke-width:2;stroke-linejoin:miter;stroke-miterlimit:2;stroke-linecap:round;fill-rule:evenodd;fill:#ffffff;fill-opacity:0.690196;"/>
        </g>
        <g id="Shape8">
            <desc shapeID="8" type="0" basicInfo-basicType="0" basicInfo-roundedRectRadius="12" basicInfo-polygonSides="6" basicInfo-starPoints="5" bounding="rect(-7.34271,-7.1741,14.6854,14.3482)" text="" font-familyName="Apple SD 산돌고딕 Neo" font-pixelSize="17" font-bold="1" font-underline="0" font-alignment="1" strokeStyle="0" markerStart="0" markerEnd="0" shadowEnabled="0" shadowOffsetX="0" shadowOffsetY="2" shadowBlur="4" shadowOpacity="160" blurEnabled="0" blurRadius="4" transform="matrix(1.2274,0,0,1.39743,415.783,319.908)" pers-center="0,0" pers-size="0,0" pers-start="0,0" pers-end="0,0" locked="0" mesh="" flag=""/>
            <path id="shapePath8" d="M424.795,329.933 L406.771,329.933 L406.771,309.882 " style="stroke:#3888a1;stroke-opacity:1;stroke-width:2;stroke-linejoin:miter;stroke-miterlimit:2;stroke-linecap:round;fill-rule:evenodd;fill:#e6f8f5;fill-opacity:1;"/>
        </g>
        <g id="Shape9">
            <desc shapeID="9" type="0" basicInfo-basicType="0" basicInfo-roundedRectRadius="12" basicInfo-polygonSides="6" basicInfo-starPoints="5" bounding="rect(-26.4667,-32.6566,52.9334,65.3133)" text="" font-familyName="Apple SD 산돌고딕 Neo" font-pixelSize="17" font-bold="1" font-underline="0" font-alignment="1" strokeStyle="0" markerStart="0" markerEnd="0" shadowEnabled="0" shadowOffsetX="0" shadowOffsetY="2" shadowBlur="4" shadowOpacity="160" blurEnabled="0" blurRadius="4" transform="matrix(1.3599,0,0,1.3595,260.441,386.831)" pers-center="0,0" pers-size="0,0" pers-start="0,0" pers-end="0,0" locked="0" mesh="" flag=""/>
            <path id="shapePath9" d="M224.448,342.434 L277.331,342.434 C285.36,350.178 289.854,354.485 296.432,362.089 L296.432,431.228 L224.448,431.228 L224.448,342.434 Z" style="stroke:#3888a1;stroke-opacity:1;stroke-width:2;stroke-linejoin:miter;stroke-miterlimit:2;stroke-linecap:round;fill-rule:evenodd;fill:#ffffff;fill-opacity:0.690196;"/>
        </g>
        <g id="Shape10">
            <desc shapeID="10" type="0" basicInfo-basicType="0" basicInfo-roundedRectRadius="12" basicInfo-polygonSides="6" basicInfo-starPoints="5" bounding="rect(-7.34271,-7.1741,14.6854,14.3482)" text="" font-familyName="Apple SD 산돌고딕 Neo" font-pixelSize="17" font-bold="1" font-underline="0" font-alignment="1" strokeStyle="0" markerStart="0" markerEnd="0" shadowEnabled="0" shadowOffsetX="0" shadowOffsetY="2" shadowBlur="4" shadowOpacity="160" blurEnabled="0" blurRadius="4" transform="matrix(1.2274,0,0,1.39743,286.657,353.283)" pers-center="0,0" pers-size="0,0" pers-start="0,0" pers-end="0,0" locked="0" mesh="" flag=""/>
            <path id="shapePath10" d="M295.669,363.309 L277.645,363.309 L277.645,343.258 " style="stroke:#3888a1;stroke-opacity:1;stroke-width:2;stroke-linejoin:miter;stroke-miterlimit:2;stroke-linecap:round;fill-rule:evenodd;fill:#e6f8f5;fill-opacity:1;"/>
        </g>
        <g id="Shape11">
            <desc shapeID="11" type="0" basicInfo-basicType="0" basicInfo-roundedRectRadius="12" basicInfo-polygonSides="6" basicInfo-starPoints="5" bounding="rect(-26.4667,-32.6566,52.9334,65.3133)" text="" font-familyName="Apple SD 산돌고딕 Neo" font-pixelSize="17" font-bold="1" font-underline="0" font-alignment="1" strokeStyle="0" markerStart="0" markerEnd="0" shadowEnabled="0" shadowOffsetX="0" shadowOffsetY="2" shadowBlur="4" shadowOpacity="160" blurEnabled="0" blurRadius="4" transform="matrix(1.3599,0,0,1.3595,494.618,222.14)" pers-center="0,0" pers-size="0,0" pers-start="0,0" pers-end="0,0" locked="0" mesh="" flag=""/>
            <path id="shapePath11" d="M458.626,177.744 L511.509,177.744 C519.537,185.487 524.031,189.795 530.61,197.399 L530.61,266.537 L458.626,266.537 L458.626,177.744 Z" style="stroke:#3888a1;stroke-opacity:1;stroke-width:2;stroke-linejoin:miter;stroke-miterlimit:2;stroke-linecap:round;fill-rule:evenodd;fill:#ffffff;fill-opacity:0.690196;"/>
        </g>
        <g id="Shape12">
            <desc shapeID="12" type="0" basicInfo-basicType="0" basicInfo-roundedRectRadius="12" basicInfo-polygonSides="6" basicInfo-starPoints="5" bounding="rect(-7.34271,-7.1741,14.6854,14.3482)" text="" font-familyName="Apple SD 산돌고딕 Neo" font-pixelSize="17" font-bold="1" font-underline="0" font-alignment="1" strokeStyle="0" markerStart="0" markerEnd="0" shadowEnabled="0" shadowOffsetX="0" shadowOffsetY="2" shadowBlur="4" shadowOpacity="160" blurEnabled="0" blurRadius="4" transform="matrix(1.2274,0,0,1.39743,520.835,188.593)" pers-center="0,0" pers-size="0,0" pers-start="0,0" pers-end="0,0" locked="0" mesh="" flag=""/>
            <path id="shapePath12" d="M529.847,198.618 L511.822,198.618 L511.822,178.568 " style="stroke:#3888a1;stroke-opacity:1;stroke-width:2;stroke-linejoin:miter;stroke-miterlimit:2;stroke-linecap:round;fill-rule:evenodd;fill:#e6f8f5;fill-opacity:1;"/>
        </g>
    </g>
    <g id="Layer3" name="Layer 3" opacity="1">
        <g id="Shape13">
            <desc shapeID="13" type="2" basicInfo-basicType="0" basicInfo-roundedRectRadius="12" basicInfo-polygonSides="6" basicInfo-starPoints="5" bounding="rect(-30.2672,-11.9148,60.5343,23.8295)" text=".md" font-familyName="Apple SD 산돌고딕 Neo" font-pixelSize="17" font-bold="1" font-underline="0" font-alignment="1" strokeStyle="0" markerStart="0" markerEnd="0" shadowEnabled="0" shadowOffsetX="0" shadowOffsetY="2" shadowBlur="4" shadowOpacity="160" blurEnabled="0" blurRadius="4" transform="matrix(1,0,0,1,155.991,230.969)" pers-center="0,0" pers-size="0,0" pers-start="0,0" pers-end="0,0" locked="0" mesh="" flag=""/>
            <path id="shapePath13" d="M142.893,236.247 L144.967,236.247 L144.967,234.258 L142.893,234.258 L142.893,236.247 M147.209,235.975 L149.164,235.975 L149.164,229.175 C149.691,228.903 150.337,228.699 150.966,228.699 C151.952,228.699 152.309,229.056 152.309,229.923 L152.309,235.975 L154.23,235.975 L154.23,229.583 C154.23,229.413 154.213,229.328 154.196,229.192 C154.859,228.869 155.437,228.699 156.015,228.699 C157.018,228.699 157.358,229.056 157.358,229.923 L157.358,235.975 L159.296,235.975 L159.296,229.464 C159.296,227.73 158.429,227.067 156.882,227.067 C155.896,227.067 154.91,227.441 154.009,228.053 L153.907,228.053 C153.516,227.373 152.836,227.067 151.833,227.067 C150.813,227.067 149.912,227.475 149.164,228.002 L149.096,228.002 L149.096,227.22 L147.209,227.22 L147.209,235.975 M164.664,236.128 C165.786,236.128 166.602,235.788 167.146,235.278 L167.214,235.278 L167.384,235.975 L169.05,235.975 L169.05,223.548 L167.112,223.548 L167.112,227.56 C166.704,227.339 166.041,227.067 165.021,227.067 C162.743,227.067 161.111,228.427 161.111,231.64 L161.111,231.861 C161.111,235.023 162.93,236.128 164.664,236.128 M165.344,234.615 C164.018,234.615 163.117,233.952 163.117,231.776 L163.117,231.453 C163.117,229.294 163.967,228.58 165.327,228.58 C166.109,228.58 166.789,228.784 167.112,229.039 L167.112,234.02 C166.772,234.275 166.16,234.615 165.344,234.615 Z" style="stroke:none;fill-rule:nonzero;fill:#34639e;fill-opacity:0.686275;"/>
        </g>
        <g id="Shape14">
            <desc shapeID="14" type="2" basicInfo-basicType="0" basicInfo-roundedRectRadius="12" basicInfo-polygonSides="6" basicInfo-starPoints="5" bounding="rect(-30.2672,-11.9148,60.5343,23.8295)" text=".pdf" font-familyName="Apple SD 산돌고딕 Neo" font-pixelSize="17" font-bold="1" font-underline="0" font-alignment="1" strokeStyle="0" markerStart="0" markerEnd="0" shadowEnabled="0" shadowOffsetX="0" shadowOffsetY="2" shadowBlur="4" shadowOpacity="160" blurEnabled="0" blurRadius="4" transform="matrix(1,0,0,1,277.949,71.1287)" pers-center="0,0" pers-size="0,0" pers-start="0,0" pers-end="0,0" locked="0" mesh="" flag=""/>
            <path id="shapePath14" d="M264.132,76.4068 L266.206,76.4068 L266.206,74.4178 L264.132,74.4178 L264.132,76.4068 M268.449,78.6678 L270.404,78.6678 L270.404,75.7948 C270.829,76.0328 271.475,76.2878 272.444,76.2878 C274.824,76.2878 276.405,74.9958 276.405,71.7148 L276.405,71.4938 C276.405,68.2808 274.756,67.2268 272.937,67.2268 C271.832,67.2268 270.931,67.6008 270.404,68.1278 L270.336,68.1278 L270.336,67.3798 L268.449,67.3798 L268.449,78.6678 M272.172,74.8088 C271.407,74.8088 270.744,74.5708 270.404,74.2988 L270.404,69.3348 C270.744,69.0968 271.407,68.8248 272.24,68.8248 C273.617,68.8248 274.365,69.4538 274.365,71.6128 L274.365,71.9698 C274.365,74.0948 273.566,74.8088 272.172,74.8088 M281.357,76.2878 C282.479,76.2878 283.295,75.9478 283.839,75.4378 L283.907,75.4378 L284.077,76.1348 L285.743,76.1348 L285.743,63.7078 L283.805,63.7078 L283.805,67.7198 C283.397,67.4988 282.734,67.2268 281.714,67.2268 C279.436,67.2268 277.804,68.5868 277.804,71.7998 L277.804,72.0208 C277.804,75.1828 279.623,76.2878 281.357,76.2878 M282.037,74.7748 C280.711,74.7748 279.81,74.1118 279.81,71.9358 L279.81,71.6128 C279.81,69.4538 280.66,68.7398 282.02,68.7398 C282.802,68.7398 283.482,68.9438 283.805,69.1988 L283.805,74.1798 C283.465,74.4348 282.853,74.7748 282.037,74.7748 M288.587,76.1348 L290.508,76.1348 L290.508,68.9098 L292.429,68.9098 L292.429,67.3798 L290.508,67.3798 L290.508,66.4958 C290.508,65.4588 291.018,65.0338 291.936,65.0338 C292.446,65.0338 292.82,65.1018 293.058,65.1528 L293.058,63.8438 C292.735,63.7078 292.191,63.5718 291.409,63.5718 C289.76,63.5718 288.587,64.4048 288.587,66.2918 L288.587,67.3798 L287.329,67.3798 L287.329,68.9098 L288.587,68.9098 L288.587,76.1348 Z" style="stroke:none;fill-rule:nonzero;fill:#34639e;fill-opacity:0.686275;"/>
        </g>
        <g id="Shape15">
            <desc shapeID="15" type="2" basicInfo-basicType="0" basicInfo-roundedRectRadius="12" basicInfo-polygonSides="6" basicInfo-starPoints="5" bounding="rect(-30.2672,-11.9148,60.5343,23.8295)" text=".epub" font-familyName="Apple SD 산돌고딕 Neo" font-pixelSize="17" font-bold="1" font-underline="0" font-alignment="1" strokeStyle="0" markerStart="0" markerEnd="0" shadowEnabled="0" shadowOffsetX="0" shadowOffsetY="2" shadowBlur="4" shadowOpacity="160" blurEnabled="0" blurRadius="4" transform="matrix(1,0,0,1,407.075,101.769)" pers-center="0,0" pers-size="0,0" pers-start="0,0" pers-end="0,0" locked="0" mesh="" flag=""/>
            <path id="shapePath15" d="M386.977,107.047 L389.051,107.047 L389.051,105.058 L386.977,105.058 L386.977,107.047 M395.136,106.928 C396.615,106.928 397.635,106.503 398.23,106.112 L398.23,104.752 C397.465,105.143 396.649,105.398 395.527,105.398 C393.861,105.398 392.926,104.752 392.807,102.933 L398.519,102.933 L398.519,102.117 C398.519,99.3288 397.397,97.8839 394.813,97.8839 C392.586,97.8839 390.801,99.3288 390.801,102.27 L390.801,102.508 C390.801,105.279 392.229,106.928 395.136,106.928 M394.779,99.3288 C395.918,99.3288 396.53,99.9408 396.53,101.59 L392.807,101.59 C392.943,99.8048 393.878,99.3288 394.779,99.3288 M400.309,109.308 L402.264,109.308 L402.264,106.435 C402.689,106.673 403.335,106.928 404.304,106.928 C406.684,106.928 408.265,105.636 408.265,102.355 L408.265,102.134 C408.265,98.9208 406.616,97.8668 404.797,97.8668 C403.692,97.8668 402.791,98.2408 402.264,98.7678 L402.196,98.7678 L402.196,98.0198 L400.309,98.0198 L400.309,109.308 M404.032,105.449 C403.267,105.449 402.604,105.211 402.264,104.939 L402.264,99.9748 C402.604,99.7368 403.267,99.4648 404.1,99.4648 C405.477,99.4648 406.225,100.094 406.225,102.253 L406.225,102.61 C406.225,104.735 405.426,105.449 404.032,105.449 M412.707,106.928 C413.812,106.928 414.662,106.537 415.393,106.01 L415.478,106.01 L415.648,106.775 L417.348,106.775 L417.348,98.0198 L415.393,98.0198 L415.393,104.82 C414.832,105.075 414.203,105.347 413.438,105.347 C412.35,105.347 412.01,104.956 412.01,104.004 L412.01,98.0198 L410.055,98.0198 L410.055,104.378 C410.055,106.095 411.007,106.928 412.707,106.928 M423.054,106.962 C426.012,106.962 427.593,105.398 427.593,102.304 L427.593,102.1 C427.593,98.8699 425.893,97.8668 424.261,97.8668 C423.105,97.8668 422.323,98.1898 421.677,98.6148 L421.592,98.6148 L421.592,94.3478 L419.637,94.3478 L419.637,106.452 C420.453,106.775 421.881,106.962 423.054,106.962 M423.173,105.466 C422.425,105.466 421.932,105.33 421.592,105.211 L421.592,99.8898 C421.949,99.7198 422.612,99.4648 423.343,99.4648 C424.856,99.4648 425.553,100.128 425.553,102.253 L425.553,102.593 C425.553,104.871 424.448,105.466 423.173,105.466 Z" style="stroke:none;fill-rule:nonzero;fill:#34639e;fill-opacity:0.686275;"/>
        </g>
        <g id="Shape16">
            <desc shapeID="16" type="2" basicInfo-basicType="0" basicInfo-roundedRectRadius="12" basicInfo-polygonSides="6" basicInfo-starPoints="5" bounding="rect(-30.2672,-11.9148,60.5343,23.8295)" text=".html" font-familyName="Apple SD 산돌고딕 Neo" font-pixelSize="17" font-bold="1" font-underline="0" font-alignment="1" strokeStyle="0" markerStart="0" markerEnd="0" shadowEnabled="0" shadowOffsetX="0" shadowOffsetY="2" shadowBlur="4" shadowOpacity="160" blurEnabled="0" blurRadius="4" transform="matrix(1,0,0,1,494.618,226.518)" pers-center="0,0" pers-size="0,0" pers-start="0,0" pers-end="0,0" locked="0" mesh="" flag=""/>
            <path id="shapePath16" d="M476.223,231.796 L478.297,231.796 L478.297,229.807 L476.223,229.807 L476.223,231.796 M480.54,231.524 L482.495,231.524 L482.495,224.724 C483.022,224.469 483.787,224.248 484.467,224.248 C485.657,224.248 485.946,224.605 485.946,225.489 L485.946,231.524 L487.918,231.524 L487.918,225.03 C487.918,223.296 487.051,222.616 485.368,222.616 C484.314,222.616 483.294,222.99 482.58,223.517 L482.495,223.517 L482.495,219.097 L480.54,219.097 L480.54,231.524 M493.157,231.626 C493.973,231.626 494.449,231.439 494.789,231.269 L494.789,229.96 C494.483,230.045 494.126,230.096 493.786,230.096 C492.868,230.096 492.596,229.824 492.596,229.093 L492.596,224.299 L494.687,224.299 L494.687,222.769 L492.596,222.769 L492.596,220.712 L490.675,220.712 L490.675,222.769 L489.451,222.769 L489.451,224.299 L490.675,224.299 L490.675,229.365 C490.675,231.014 491.644,231.626 493.157,231.626 M496.571,231.524 L498.526,231.524 L498.526,224.724 C499.053,224.452 499.699,224.248 500.328,224.248 C501.314,224.248 501.671,224.605 501.671,225.472 L501.671,231.524 L503.592,231.524 L503.592,225.132 C503.592,224.962 503.575,224.877 503.558,224.741 C504.221,224.418 504.799,224.248 505.377,224.248 C506.38,224.248 506.72,224.605 506.72,225.472 L506.72,231.524 L508.658,231.524 L508.658,225.013 C508.658,223.279 507.791,222.616 506.244,222.616 C505.258,222.616 504.272,222.99 503.371,223.602 L503.269,223.602 C502.878,222.922 502.198,222.616 501.195,222.616 C500.175,222.616 499.274,223.024 498.526,223.551 L498.458,223.551 L498.458,222.769 L496.571,222.769 L496.571,231.524 M510.949,231.524 L512.921,231.524 L512.921,219.097 L510.949,219.097 L510.949,231.524 Z" style="stroke:none;fill-rule:nonzero;fill:#34639e;fill-opacity:0.686275;"/>
        </g>
        <g id="Shape17">
            <desc shapeID="17" type="2" basicInfo-basicType="0" basicInfo-roundedRectRadius="12" basicInfo-polygonSides="6" basicInfo-starPoints="5" bounding="rect(-30.2672,-11.9148,60.5343,23.8295)" text=".docx" font-familyName="Apple SD 산돌고딕 Neo" font-pixelSize="17" font-bold="1" font-underline="0" font-alignment="1" strokeStyle="0" markerStart="0" markerEnd="0" shadowEnabled="0" shadowOffsetX="0" shadowOffsetY="2" shadowBlur="4" shadowOpacity="160" blurEnabled="0" blurRadius="4" transform="matrix(1,0,0,1,388.472,357.285)" pers-center="0,0" pers-size="0,0" pers-start="0,0" pers-end="0,0" locked="0" mesh="" flag=""/>
            <path id="shapePath17" d="M369.327,362.563 L371.401,362.563 L371.401,360.574 L369.327,360.574 L369.327,362.563 M376.755,362.444 C377.877,362.444 378.693,362.104 379.237,361.594 L379.305,361.594 L379.475,362.291 L381.141,362.291 L381.141,349.864 L379.203,349.864 L379.203,353.876 C378.795,353.655 378.132,353.383 377.112,353.383 C374.834,353.383 373.202,354.743 373.202,357.956 L373.202,358.177 C373.202,361.339 375.021,362.444 376.755,362.444 M377.435,360.931 C376.109,360.931 375.208,360.268 375.208,358.092 L375.208,357.769 C375.208,355.61 376.058,354.896 377.418,354.896 C378.2,354.896 378.88,355.1 379.203,355.355 L379.203,360.336 C378.863,360.591 378.251,360.931 377.435,360.931 M387.096,362.444 C389.544,362.444 391.244,360.829 391.244,358.007 L391.244,357.769 C391.244,354.981 389.731,353.383 387.113,353.383 C384.648,353.383 382.948,355.015 382.948,357.82 L382.948,358.092 C382.948,360.829 384.427,362.444 387.096,362.444 M387.13,360.965 C385.906,360.965 384.954,360.353 384.954,358.092 L384.954,357.684 C384.954,355.797 385.736,354.862 387.079,354.862 C388.269,354.862 389.204,355.474 389.204,357.752 L389.204,358.177 C389.204,360.064 388.439,360.965 387.13,360.965 M396.723,362.444 C397.93,362.444 398.746,362.121 399.307,361.764 L399.307,360.336 C398.865,360.54 398.134,360.88 397.063,360.88 C395.397,360.88 394.564,360.03 394.564,358.024 L394.564,357.633 C394.564,355.882 395.465,354.964 396.927,354.964 C397.964,354.964 398.491,355.151 399.222,355.44 L399.222,353.91 C398.661,353.604 397.964,353.383 396.808,353.383 C394.377,353.383 392.541,354.811 392.541,357.837 L392.541,358.109 C392.541,360.999 394.139,362.444 396.723,362.444 M400.187,362.291 L402.227,362.291 L404.182,359.112 L406.103,362.291 L408.398,362.291 L405.576,357.786 L408.16,353.536 L406.137,353.536 L404.454,356.562 L402.601,353.536 L400.34,353.536 L403.043,357.803 L400.187,362.291 Z" style="stroke:none;fill-rule:nonzero;fill:#34639e;fill-opacity:0.686275;"/>
        </g>
        <g id="Shape18">
            <desc shapeID="18" type="2" basicInfo-basicType="0" basicInfo-roundedRectRadius="12" basicInfo-polygonSides="6" basicInfo-starPoints="5" bounding="rect(-30.2672,-11.9148,60.5343,23.8295)" text=".odt" font-familyName="Apple SD 산돌고딕 Neo" font-pixelSize="17" font-bold="1" font-underline="0" font-alignment="1" strokeStyle="0" markerStart="0" markerEnd="0" shadowEnabled="0" shadowOffsetX="0" shadowOffsetY="2" shadowBlur="4" shadowOpacity="160" blurEnabled="0" blurRadius="4" transform="matrix(1,0,0,1,260.441,391.755)" pers-center="0,0" pers-size="0,0" pers-start="0,0" pers-end="0,0" locked="0" mesh="" flag=""/>
            <path id="shapePath18" d="M246.514,397.033 L248.588,397.033 L248.588,395.044 L246.514,395.044 L246.514,397.033 M254.486,396.914 C256.934,396.914 258.634,395.299 258.634,392.477 L258.634,392.239 C258.634,389.451 257.121,387.853 254.503,387.853 C252.038,387.853 250.338,389.485 250.338,392.29 L250.338,392.562 C250.338,395.299 251.817,396.914 254.486,396.914 M254.52,395.435 C253.296,395.435 252.344,394.823 252.344,392.562 L252.344,392.154 C252.344,390.267 253.126,389.332 254.469,389.332 C255.659,389.332 256.594,389.944 256.594,392.222 L256.594,392.647 C256.594,394.534 255.829,395.435 254.52,395.435 M263.536,396.914 C264.658,396.914 265.474,396.574 266.018,396.064 L266.086,396.064 L266.256,396.761 L267.922,396.761 L267.922,384.334 L265.984,384.334 L265.984,388.346 C265.576,388.125 264.913,387.853 263.893,387.853 C261.615,387.853 259.983,389.213 259.983,392.426 L259.983,392.647 C259.983,395.809 261.802,396.914 263.536,396.914 M264.216,395.401 C262.89,395.401 261.989,394.738 261.989,392.562 L261.989,392.239 C261.989,390.08 262.839,389.366 264.199,389.366 C264.981,389.366 265.661,389.57 265.984,389.825 L265.984,394.806 C265.644,395.061 265.032,395.401 264.216,395.401 M273.214,396.863 C274.03,396.863 274.506,396.676 274.846,396.506 L274.846,395.197 C274.54,395.282 274.183,395.333 273.843,395.333 C272.925,395.333 272.653,395.061 272.653,394.33 L272.653,389.536 L274.744,389.536 L274.744,388.006 L272.653,388.006 L272.653,385.949 L270.732,385.949 L270.732,388.006 L269.508,388.006 L269.508,389.536 L270.732,389.536 L270.732,394.602 C270.732,396.251 271.701,396.863 273.214,396.863 Z" style="stroke:none;fill-rule:nonzero;fill:#34639e;fill-opacity:0.686275;"/>
        </g>
    </g>
</svg>
